<?xml version="1.0" encoding="UTF-8"?>
<!DOCTYPE svg PUBLIC "-//W3C//DTD SVG 1.1//EN" "http://www.w3.org/Graphics/SVG/1.1/DTD/svg11.dtd">
<!-- Creator: CorelDRAW -->
<svg xmlns="http://www.w3.org/2000/svg" xml:space="preserve" width="467px" height="119px" version="1.1" style="shape-rendering:geometricPrecision; text-rendering:geometricPrecision; image-rendering:optimizeQuality; fill-rule:evenodd; clip-rule:evenodd"
viewBox="0 0 59.88 15.28"
 xmlns:xlink="http://www.w3.org/1999/xlink"
 xmlns:xodm="http://www.corel.com/coreldraw/odm/2003">
 <defs>
  <style type="text/css">
   <![CDATA[
    .fil8 {fill:#9CCAA4;fill-rule:nonzero}
    .fil0 {fill:#A9CFD8;fill-rule:nonzero}
    .fil6 {fill:#D8DF59;fill-rule:nonzero}
    .fil7 {fill:#D98499;fill-rule:nonzero}
    .fil4 {fill:#DBD3B6;fill-rule:nonzero}
    .fil5 {fill:#F2612A;fill-rule:nonzero}
    .fil2 {fill:#F29400;fill-rule:nonzero}
    .fil9 {fill:#F2CE68;fill-rule:nonzero}
    .fil3 {fill:#FAEDBB;fill-rule:nonzero}
    .fil1 {fill:white;fill-rule:nonzero}
   ]]>
  </style>
 </defs>
 <g id="Camada_x0020_1">
  <metadata id="CorelCorpID_0Corel-Layer"/>
  <g id="_105553247781344">
   <path class="fil0" d="M15.71 15l-4.63 0c-0.25,0 -0.45,-0.2 -0.45,-0.45l0 -4.68c0,-0.25 0.2,-0.45 0.45,-0.45l4.63 0c0.25,0 0.46,0.2 0.46,0.45l0 4.68c0,0.25 -0.21,0.45 -0.46,0.45z"/>
   <path class="fil1" d="M11.08 9.52c-0.19,0 -0.35,0.15 -0.35,0.35l0 4.68c0,0.19 0.16,0.35 0.35,0.35l4.63 0c0.2,0 0.36,-0.16 0.36,-0.35l0 -4.68c0,-0.2 -0.16,-0.35 -0.36,-0.35l-4.63 0zm4.63 5.58l-4.63 0c-0.31,0 -0.56,-0.25 -0.56,-0.55l0 -4.68c0,-0.31 0.25,-0.56 0.56,-0.56l4.63 0c0.31,0 0.56,0.25 0.56,0.56l0 4.68c0,0.3 -0.25,0.55 -0.56,0.55z"/>
   <path class="fil2" d="M15.36 0.54l0 3.88c0,0.25 -0.2,0.44 -0.44,0.44l-3.86 0c-0.24,0 -0.43,-0.19 -0.43,-0.44l0 -3.88c0,-0.24 0.19,-0.44 0.43,-0.44l3.86 0c0.24,0 0.44,0.2 0.44,0.44z"/>
   <path class="fil1" d="M11.06 0.2c-0.18,0 -0.33,0.15 -0.33,0.34l0 3.88c0,0.19 0.15,0.34 0.33,0.34l3.86 0c0.18,0 0.33,-0.15 0.33,-0.34l0 -3.88c0,-0.19 -0.15,-0.34 -0.33,-0.34l-3.86 0zm3.86 4.76l-3.86 0c-0.29,0 -0.54,-0.24 -0.54,-0.54l0 -3.88c0,-0.3 0.25,-0.54 0.54,-0.54l3.86 0c0.29,0 0.54,0.24 0.54,0.54l0 3.88c0,0.3 -0.25,0.54 -0.54,0.54z"/>
   <path class="fil3" d="M0.62 2.42l3.64 0c0.28,0 0.51,0.23 0.51,0.51l0 3.63c0,0.28 -0.23,0.51 -0.51,0.51l-3.64 0c-0.29,0 -0.52,-0.23 -0.52,-0.51l0 -3.63c0,-0.28 0.23,-0.51 0.52,-0.51z"/>
   <path class="fil1" d="M0.62 2.52c-0.23,0 -0.42,0.18 -0.42,0.41l0 3.63c0,0.23 0.19,0.41 0.42,0.41l3.64 0c0.22,0 0.41,-0.18 0.41,-0.41l0 -3.63c0,-0.23 -0.19,-0.41 -0.41,-0.41l-3.64 0zm3.64 4.66l-3.64 0c-0.34,0 -0.62,-0.28 -0.62,-0.62l0 -3.63c0,-0.34 0.28,-0.61 0.62,-0.61l3.64 0c0.34,0 0.61,0.27 0.61,0.61l0 3.63c0,0.34 -0.27,0.62 -0.61,0.62z"/>
   <path class="fil4" d="M4.19 14.64l0 -2.21c0,-0.29 0.24,-0.54 0.54,-0.54l2.21 0c0.3,0 0.54,0.25 0.54,0.54l0 2.21c0,0.3 -0.24,0.54 -0.54,0.54l-2.21 0c-0.3,0 -0.54,-0.24 -0.54,-0.54z"/>
   <path class="fil1" d="M4.73 12c-0.25,0 -0.44,0.19 -0.44,0.43l0 2.21c0,0.24 0.19,0.44 0.44,0.44l2.21 0c0.24,0 0.44,-0.2 0.44,-0.44l0 -2.21c0,-0.24 -0.2,-0.43 -0.44,-0.43l-2.21 0zm2.21 3.28l-2.21 0c-0.36,0 -0.65,-0.29 -0.65,-0.64l0 -2.21c0,-0.35 0.29,-0.64 0.65,-0.64l2.21 0c0.35,0 0.64,0.29 0.64,0.64l0 2.21c0,0.35 -0.29,0.64 -0.64,0.64z"/>
   <path class="fil5" d="M10.16 3l0 3.5c0,0.33 -0.26,0.6 -0.6,0.6l-3.74 0c-0.33,0 -0.6,-0.27 -0.6,-0.6l0 -3.5c0,-0.33 0.27,-0.6 0.6,-0.6l3.74 0c0.34,0 0.6,0.27 0.6,0.6z"/>
   <path class="fil1" d="M5.82 2.5c-0.28,0 -0.5,0.23 -0.5,0.5l0 3.5c0,0.27 0.22,0.5 0.5,0.5l3.74 0c0.28,0 0.5,-0.23 0.5,-0.5l0 -3.5c0,-0.27 -0.22,-0.5 -0.5,-0.5l-3.74 0zm3.74 4.7l-3.74 0c-0.39,0 -0.7,-0.31 -0.7,-0.7l0 -3.5c0,-0.39 0.31,-0.7 0.7,-0.7l3.74 0c0.39,0 0.71,0.31 0.71,0.7l0 3.5c0,0.39 -0.32,0.7 -0.71,0.7z"/>
   <path class="fil6" d="M6.05 11.12l0 -3.16c0,-0.25 0.2,-0.44 0.44,-0.44l3.23 0c0.25,0 0.44,0.19 0.44,0.44l0 3.16c0,0.24 -0.19,0.44 -0.44,0.44l-3.23 0c-0.24,0 -0.44,-0.2 -0.44,-0.44z"/>
   <path class="fil1" d="M6.49 7.62c-0.19,0 -0.34,0.15 -0.34,0.34l0 3.16c0,0.19 0.15,0.34 0.34,0.34l3.23 0c0.19,0 0.34,-0.15 0.34,-0.34l0 -3.16c0,-0.19 -0.15,-0.34 -0.34,-0.34l-3.23 0zm3.23 4.04l-3.23 0c-0.3,0 -0.54,-0.24 -0.54,-0.54l0 -3.16c0,-0.3 0.24,-0.55 0.54,-0.55l3.23 0c0.3,0 0.55,0.25 0.55,0.55l0 3.16c0,0.3 -0.25,0.54 -0.55,0.54z"/>
   <path class="fil7" d="M5.61 7.97l0 3.13c0,0.25 -0.2,0.45 -0.45,0.45l-3.09 0c-0.25,0 -0.45,-0.2 -0.45,-0.45l0 -3.13c0,-0.25 0.2,-0.45 0.45,-0.45l3.09 0c0.25,0 0.45,0.2 0.45,0.45z"/>
   <path class="fil1" d="M2.07 7.62c-0.19,0 -0.35,0.15 -0.35,0.35l0 3.13c0,0.19 0.16,0.35 0.35,0.35l3.09 0c0.19,0 0.35,-0.16 0.35,-0.35l0 -3.13c0,-0.2 -0.16,-0.35 -0.35,-0.35l-3.09 0zm3.09 4.03l-3.09 0c-0.31,0 -0.55,-0.24 -0.55,-0.55l0 -3.13c0,-0.31 0.24,-0.56 0.55,-0.56l3.09 0c0.3,0 0.55,0.25 0.55,0.56l0 3.13c0,0.31 -0.25,0.55 -0.55,0.55z"/>
   <path class="fil8" d="M10.63 8.49l0 -2.74c0,-0.25 0.19,-0.45 0.44,-0.45l2.76 0c0.24,0 0.44,0.2 0.44,0.45l0 2.74c0,0.24 -0.2,0.44 -0.44,0.44l-2.76 0c-0.25,0 -0.44,-0.2 -0.44,-0.44z"/>
   <path class="fil1" d="M11.07 5.41c-0.19,0 -0.34,0.15 -0.34,0.34l0 2.74c0,0.19 0.15,0.34 0.34,0.34l2.76 0c0.19,0 0.34,-0.15 0.34,-0.34l0 -2.74c0,-0.19 -0.15,-0.34 -0.34,-0.34l-2.76 0zm2.76 3.62l-2.76 0c-0.3,0 -0.55,-0.24 -0.55,-0.54l0 -2.74c0,-0.3 0.25,-0.55 0.55,-0.55l2.76 0c0.3,0 0.54,0.25 0.54,0.55l0 2.74c0,0.3 -0.24,0.54 -0.54,0.54z"/>
   <path class="fil2" d="M3.29 14.83l-1.94 0c-0.27,0 -0.48,-0.21 -0.48,-0.48l0 -1.98c0,-0.26 0.21,-0.48 0.48,-0.48l1.94 0c0.27,0 0.48,0.22 0.48,0.48l0 1.98c0,0.27 -0.21,0.48 -0.48,0.48z"/>
   <path class="fil1" d="M1.35 12c-0.21,0 -0.38,0.16 -0.38,0.37l0 1.98c0,0.21 0.17,0.38 0.38,0.38l1.94 0c0.21,0 0.38,-0.17 0.38,-0.38l0 -1.98c0,-0.21 -0.17,-0.37 -0.38,-0.37l-1.94 0zm1.94 2.93l-1.94 0c-0.32,0 -0.58,-0.26 -0.58,-0.58l0 -1.98c0,-0.32 0.26,-0.58 0.58,-0.58l1.94 0c0.32,0 0.58,0.26 0.58,0.58l0 1.98c0,0.32 -0.26,0.58 -0.58,0.58z"/>
   <path class="fil9" d="M7.87 13.72l0 -1.36c0,-0.26 0.21,-0.47 0.47,-0.47l1.35 0c0.26,0 0.47,0.21 0.47,0.47l0 1.36c0,0.26 -0.21,0.47 -0.47,0.47l-1.35 0c-0.26,0 -0.47,-0.21 -0.47,-0.47z"/>
   <path class="fil1" d="M8.34 12c-0.21,0 -0.37,0.16 -0.37,0.36l0 1.36c0,0.21 0.16,0.37 0.37,0.37l1.35 0c0.21,0 0.37,-0.16 0.37,-0.37l0 -1.36c0,-0.2 -0.16,-0.36 -0.37,-0.36l-1.35 0zm1.35 2.29l-1.35 0c-0.32,0 -0.58,-0.25 -0.58,-0.57l0 -1.36c0,-0.31 0.26,-0.57 0.58,-0.57l1.35 0c0.32,0 0.58,0.26 0.58,0.57l0 1.36c0,0.32 -0.26,0.57 -0.58,0.57z"/>
   <path class="fil2" d="M20.6 9.74l3.23 0c0.19,0 0.35,0.16 0.35,0.36l0 0.35c0,0.2 -0.16,0.36 -0.35,0.36l-4.64 0c-0.2,0 -0.35,-0.16 -0.35,-0.36l0 -7.32c0,-0.2 0.15,-0.36 0.35,-0.36l0.69 0c0.2,0 0.36,0.16 0.36,0.36l0 6.25c0,0.2 0.16,0.36 0.36,0.36z"/>
   <path class="fil2" d="M29.14 8.33c-0.06,-0.15 -0.16,-0.29 -0.3,-0.41 -0.24,-0.21 -0.68,-0.4 -1.32,-0.57 -0.97,-0.26 -1.71,-0.6 -2.2,-1.04 -0.38,-0.33 -0.6,-0.81 -0.63,-1.31 -0.03,-0.7 0.24,-1.27 0.81,-1.72 0.54,-0.42 1.23,-0.63 2.08,-0.63 0.91,0 1.64,0.24 2.18,0.7 0.55,0.47 0.81,1.04 0.79,1.73l-0.01 0.03 -1.33 0c-0.01,0 -0.02,-0.01 -0.02,-0.02 -0.01,-0.41 -0.15,-0.74 -0.44,-0.99 -0.3,-0.25 -0.69,-0.37 -1.18,-0.37 -0.47,0 -0.84,0.1 -1.1,0.32 -0.25,0.21 -0.38,0.49 -0.38,0.82 0,0.31 0.14,0.57 0.42,0.77 0.28,0.2 0.75,0.39 1.4,0.57 0.88,0.24 1.56,0.56 2.02,0.96 0.46,0.41 0.69,0.93 0.69,1.56 0,0.67 -0.27,1.2 -0.82,1.6 -0.55,0.4 -1.27,0.6 -2.16,0.6 -0.85,0 -1.6,-0.22 -2.23,-0.65 -0.64,-0.44 -0.95,-1.05 -0.93,-1.84l0.01 -0.04 1.33 0c0.02,0 0.03,0.01 0.03,0.03 0,0.47 0.18,0.82 0.52,1.06 0.35,0.25 0.77,0.37 1.27,0.37 0.4,0 0.73,-0.06 0.99,-0.19 0.45,-0.23 0.7,-0.86 0.51,-1.34z"/>
   <path class="fil2" d="M37.62 8.18l0.01 0.04c0.02,0.81 -0.26,1.46 -0.82,1.96 -0.57,0.5 -1.33,0.75 -2.3,0.75 -0.98,0 -1.77,-0.32 -2.38,-0.95 -0.61,-0.63 -0.91,-1.44 -0.91,-2.42l0 -1.53c0,-0.98 0.3,-1.79 0.9,-2.42 0.6,-0.64 1.38,-0.96 2.35,-0.96 0.99,0 1.77,0.25 2.34,0.73 0.57,0.48 0.84,1.14 0.83,1.98l-0.01 0.03 -1.02 0c-0.18,0 -0.34,-0.13 -0.36,-0.3 -0.05,-0.39 -0.19,-0.7 -0.44,-0.93 -0.3,-0.29 -0.75,-0.43 -1.34,-0.43 -0.57,0 -1.02,0.22 -1.36,0.65 -0.33,0.43 -0.5,0.98 -0.5,1.64l0 1.54c0,0.66 0.17,1.21 0.51,1.65 0.34,0.43 0.81,0.65 1.39,0.65 0.58,0 1.01,-0.15 1.31,-0.44 0.24,-0.22 0.38,-0.54 0.43,-0.93 0.02,-0.18 0.18,-0.31 0.36,-0.31l1.01 0z"/>
   <path class="fil2" d="M44.29 3.33l-2.83 0c-0.01,0 -0.02,0.01 -0.02,0.03l0 7.43c0,0.01 -0.01,0.02 -0.02,0.02l-0.64 0c-0.02,0 -0.03,-0.01 -0.03,-0.02l0 -7.43c0,-0.02 -0.01,-0.03 -0.02,-0.03l-2.92 0c-0.01,0 -0.02,-0.01 -0.02,-0.02l0 -0.52c0,-0.01 0.01,-0.02 0.02,-0.02l6.48 0c0.01,0 0.02,0.01 0.02,0.02l0 0.52c0,0.01 -0.01,0.02 -0.02,0.02z"/>
   <path class="fil2" d="M44.64 7.92c0,0.69 0.19,1.27 0.55,1.74 0.37,0.47 0.88,0.71 1.53,0.71 0.65,0 1.15,-0.24 1.52,-0.71 0.37,-0.47 0.55,-1.05 0.55,-1.74l0 -0.18c0,-0.69 -0.18,-1.26 -0.55,-1.74 -0.37,-0.47 -0.88,-0.71 -1.53,-0.71 -0.65,0 -1.15,0.24 -1.52,0.71 -0.36,0.48 -0.55,1.05 -0.55,1.74l0 0.18zm-0.69 -0.18c0,-0.88 0.25,-1.61 0.76,-2.17 0.5,-0.56 1.17,-0.84 2,-0.84 0.84,0 1.51,0.28 2.01,0.84 0.51,0.56 0.76,1.29 0.76,2.17l0 0.18c0,0.88 -0.25,1.6 -0.75,2.16 -0.51,0.57 -1.17,0.85 -2.01,0.85 -0.84,0 -1.51,-0.28 -2.01,-0.85 -0.51,-0.56 -0.76,-1.28 -0.76,-2.16l0 -0.18z"/>
   <path class="fil2" d="M52.02 9.19c0,0 0,0 0,0l0.22 0.72 0.04 0 1.88 -5.06c0.01,-0.01 0.02,-0.01 0.02,-0.01l0.73 0c0.02,0 0.03,0.01 0.02,0.03l-2.7 6.9c-0.17,0.4 -0.38,0.75 -0.63,1.03 -0.26,0.28 -0.64,0.42 -1.14,0.42 -0.08,0 -0.18,0 -0.29,-0.02 -0.11,-0.02 -0.18,-0.03 -0.24,-0.05 -0.01,0 -0.02,-0.01 -0.01,-0.02l0.07 -0.51c0,-0.01 0.01,-0.02 0.03,-0.02 0.04,0 0.11,0.01 0.2,0.02 0.1,0.01 0.17,0.01 0.22,0.01 0.3,0 0.54,-0.1 0.72,-0.3 0.18,-0.21 0.34,-0.47 0.46,-0.79l0.33 -0.8c0,0 0,-0.01 0,-0.02l-2.4 -5.85c-0.01,-0.02 0.01,-0.03 0.02,-0.03l0.72 0c0.01,0 0.02,0 0.02,0.01l1.71 4.34z"/>
   <path class="fil2" d="M59.2 9.28c0,-0.28 -0.12,-0.52 -0.36,-0.73 -0.25,-0.21 -0.68,-0.38 -1.31,-0.51 -0.74,-0.15 -1.29,-0.35 -1.65,-0.61 -0.36,-0.25 -0.54,-0.61 -0.54,-1.07 0,-0.46 0.2,-0.84 0.6,-1.16 0.41,-0.32 0.94,-0.47 1.6,-0.47 0.7,0 1.26,0.16 1.67,0.5 0.42,0.34 0.62,0.75 0.6,1.25l-0.01 0.03 -0.62 0c-0.01,0 -0.02,-0.01 -0.02,-0.02 -0.01,-0.32 -0.16,-0.6 -0.45,-0.84 -0.29,-0.24 -0.68,-0.36 -1.17,-0.36 -0.5,0 -0.88,0.1 -1.13,0.31 -0.25,0.21 -0.38,0.46 -0.38,0.74 0,0.27 0.11,0.5 0.32,0.67 0.22,0.18 0.66,0.34 1.31,0.48 0.75,0.16 1.32,0.38 1.69,0.67 0.39,0.29 0.57,0.77 0.53,1.25 -0.04,0.42 -0.25,0.77 -0.63,1.05 -0.42,0.31 -0.98,0.47 -1.67,0.47 -0.76,0 -1.36,-0.18 -1.79,-0.52 -0.44,-0.35 -0.64,-0.76 -0.62,-1.24l0.01 -0.03 0.62 0c0.01,0 0.02,0.01 0.02,0.02 0.03,0.42 0.22,0.72 0.55,0.92 0.34,0.19 0.75,0.29 1.21,0.29 0.5,0 0.89,-0.11 1.18,-0.32 0.29,-0.21 0.44,-0.47 0.44,-0.77z"/>
  </g>
 </g>
</svg>
