<?xml version="1.0" encoding="UTF-8"?>
<!DOCTYPE svg PUBLIC "-//W3C//DTD SVG 1.1//EN" "http://www.w3.org/Graphics/SVG/1.1/DTD/svg11.dtd">
<!-- Creator: CorelDRAW -->
<svg xmlns="http://www.w3.org/2000/svg" xml:space="preserve" width="515px" height="200px" version="1.1" style="shape-rendering:geometricPrecision; text-rendering:geometricPrecision; image-rendering:optimizeQuality; fill-rule:evenodd; clip-rule:evenodd"
viewBox="0 0 46.04 17.92"
 xmlns:xlink="http://www.w3.org/1999/xlink"
 xmlns:xodm="http://www.corel.com/coreldraw/odm/2003">
 <defs>
  <style type="text/css">
   <![CDATA[
    .fil1 {fill:#FBDF3E;fill-rule:nonzero}
    .fil0 {fill:#E9348A;fill-rule:nonzero}
    .fil3 {fill:#D28F7B;fill-rule:nonzero}
    .fil5 {fill:#BD8EA8;fill-rule:nonzero}
    .fil7 {fill:#ACBF9E;fill-rule:nonzero}
    .fil2 {fill:#9FCCD4;fill-rule:nonzero}
    .fil4 {fill:#9C81B1;fill-rule:nonzero}
    .fil6 {fill:#97A666;fill-rule:nonzero}
   ]]>
  </style>
 </defs>
 <g id="Camada_x0020_1">
  <metadata id="CorelCorpID_0Corel-Layer"/>
  <g id="_105553238262048">
   <path class="fil0" d="M30.09 7.04c-0.01,-0.07 -0.02,-0.15 -0.01,-0.25 0.01,-0.1 0.03,-0.19 0.07,-0.29 0.07,-0.18 0.17,-0.29 0.29,-0.34 0.12,-0.05 0.25,-0.05 0.39,0l3.29 1.14c0.01,0.06 0.02,0.14 0.01,0.24 0,0.1 -0.03,0.2 -0.07,0.3 -0.07,0.18 -0.17,0.29 -0.29,0.34 -0.12,0.05 -0.25,0.05 -0.39,0l-0.84 -0.29 -1.31 3.2c-0.06,0 -0.16,-0.02 -0.28,-0.05 -0.12,-0.02 -0.24,-0.06 -0.36,-0.1 -0.11,-0.04 -0.21,-0.08 -0.29,-0.13 -0.09,-0.04 -0.15,-0.1 -0.19,-0.16 -0.04,-0.06 -0.07,-0.14 -0.07,-0.22 0.01,-0.09 0.03,-0.19 0.08,-0.31l1.1 -2.69 -1.13 -0.39z"/>
   <path class="fil0" d="M34.56 10.11c-0.04,0.3 -0.01,0.54 0.1,0.71 0.1,0.17 0.27,0.27 0.49,0.3 0.22,0.02 0.41,-0.04 0.55,-0.19 0.14,-0.15 0.23,-0.37 0.27,-0.66 0.03,-0.3 0,-0.53 -0.1,-0.71 -0.1,-0.17 -0.27,-0.27 -0.49,-0.29 -0.22,-0.03 -0.41,0.03 -0.55,0.18 -0.14,0.15 -0.24,0.37 -0.27,0.66zm2.8 0.31c-0.04,0.3 -0.13,0.57 -0.26,0.79 -0.13,0.23 -0.3,0.42 -0.5,0.56 -0.21,0.14 -0.45,0.24 -0.71,0.29 -0.27,0.06 -0.56,0.07 -0.87,0.04 -0.32,-0.04 -0.6,-0.11 -0.84,-0.23 -0.25,-0.12 -0.45,-0.27 -0.62,-0.45 -0.16,-0.19 -0.28,-0.4 -0.35,-0.65 -0.07,-0.25 -0.08,-0.52 -0.05,-0.81 0.04,-0.29 0.13,-0.55 0.26,-0.77 0.13,-0.23 0.3,-0.41 0.5,-0.56 0.21,-0.14 0.45,-0.24 0.71,-0.3 0.27,-0.06 0.56,-0.08 0.88,-0.04 0.31,0.03 0.59,0.11 0.84,0.23 0.24,0.12 0.44,0.27 0.61,0.45 0.16,0.19 0.28,0.4 0.35,0.65 0.07,0.25 0.09,0.51 0.05,0.8z"/>
   <path class="fil0" d="M38.9 11.16c-0.07,-0.11 -0.15,-0.24 -0.24,-0.38 -0.09,-0.15 -0.19,-0.31 -0.28,-0.5 -0.1,-0.19 -0.21,-0.4 -0.32,-0.65 -0.12,-0.24 -0.24,-0.52 -0.37,-0.84 0.06,-0.08 0.15,-0.15 0.27,-0.22 0.12,-0.06 0.25,-0.1 0.4,-0.12 0.19,-0.03 0.35,-0.01 0.48,0.05 0.13,0.05 0.24,0.18 0.33,0.37l0.92 1.94 0.03 0c0.04,-0.18 0.08,-0.36 0.11,-0.57 0.04,-0.2 0.07,-0.41 0.1,-0.63 0.02,-0.21 0.05,-0.43 0.07,-0.64 0.02,-0.22 0.04,-0.43 0.05,-0.63 0.17,-0.12 0.38,-0.19 0.61,-0.22 0.18,-0.02 0.34,0 0.48,0.06 0.13,0.06 0.21,0.18 0.23,0.36 0.02,0.13 0.03,0.29 0.01,0.46 -0.01,0.18 -0.03,0.37 -0.06,0.58 -0.04,0.2 -0.08,0.41 -0.13,0.63 -0.06,0.22 -0.12,0.43 -0.18,0.65 -0.06,0.21 -0.13,0.41 -0.2,0.6 -0.07,0.19 -0.14,0.36 -0.21,0.51 -0.11,0.26 -0.22,0.48 -0.33,0.64 -0.11,0.17 -0.21,0.3 -0.32,0.4 -0.1,0.1 -0.21,0.18 -0.32,0.22 -0.12,0.05 -0.24,0.08 -0.36,0.09 -0.23,0.03 -0.42,-0.01 -0.57,-0.11 -0.16,-0.11 -0.27,-0.26 -0.32,-0.45 0.15,-0.15 0.3,-0.3 0.45,-0.47 0.15,-0.17 0.29,-0.34 0.4,-0.52 -0.09,-0.01 -0.2,-0.06 -0.31,-0.14 -0.12,-0.07 -0.26,-0.23 -0.42,-0.47z"/>
   <path class="fil0" d="M45.97 9.43c0.13,0.36 0.08,0.68 -0.14,0.97 -0.22,0.29 -0.61,0.52 -1.18,0.69 -0.21,0.06 -0.42,0.11 -0.61,0.13 -0.2,0.03 -0.37,0.03 -0.52,0.01 -0.15,-0.02 -0.28,-0.06 -0.39,-0.13 -0.1,-0.06 -0.18,-0.16 -0.22,-0.28 -0.04,-0.11 -0.05,-0.22 -0.02,-0.31 0.02,-0.09 0.06,-0.18 0.11,-0.25 0.18,0.03 0.37,0.05 0.58,0.05 0.22,0 0.45,-0.04 0.7,-0.11 0.16,-0.05 0.27,-0.1 0.34,-0.17 0.07,-0.07 0.09,-0.14 0.07,-0.21 -0.03,-0.07 -0.07,-0.11 -0.15,-0.13 -0.07,-0.02 -0.19,-0.02 -0.34,0l-0.24 0.03c-0.48,0.05 -0.85,0.02 -1.13,-0.08 -0.28,-0.11 -0.47,-0.32 -0.59,-0.64 -0.06,-0.18 -0.07,-0.35 -0.04,-0.51 0.03,-0.17 0.11,-0.32 0.22,-0.46 0.12,-0.14 0.27,-0.26 0.46,-0.37 0.19,-0.12 0.41,-0.21 0.66,-0.29 0.19,-0.05 0.37,-0.09 0.54,-0.12 0.18,-0.02 0.34,-0.03 0.48,-0.01 0.14,0.02 0.26,0.05 0.36,0.11 0.1,0.06 0.17,0.15 0.21,0.26 0.04,0.11 0.05,0.21 0.03,0.3 -0.01,0.09 -0.04,0.17 -0.09,0.25 -0.05,-0.02 -0.12,-0.02 -0.21,-0.02 -0.09,0 -0.19,0 -0.3,0.01 -0.1,0 -0.21,0.02 -0.31,0.03 -0.11,0.02 -0.2,0.04 -0.28,0.06 -0.17,0.05 -0.29,0.11 -0.37,0.17 -0.08,0.06 -0.11,0.13 -0.08,0.21 0.02,0.05 0.06,0.08 0.12,0.1 0.06,0.02 0.17,0.02 0.32,0.01l0.26 -0.02c0.53,-0.05 0.92,-0.01 1.2,0.11 0.27,0.12 0.45,0.32 0.55,0.61z"/>
   <path class="fil0" d="M24.78 10.56c-0.05,0.08 -0.13,0.16 -0.25,0.24 -0.12,0.07 -0.27,0.13 -0.45,0.18 -0.18,0.05 -0.35,0.08 -0.53,0.07 -0.18,-0.01 -0.34,-0.1 -0.5,-0.28l-1.14 -1.26c-0.12,-0.13 -0.22,-0.26 -0.32,-0.37 -0.1,-0.12 -0.2,-0.26 -0.32,-0.41l-0.04 0.02c0.09,0.25 0.18,0.52 0.26,0.79 0.08,0.27 0.16,0.54 0.23,0.8l0.32 1.13c-0.05,0.03 -0.13,0.07 -0.23,0.11 -0.11,0.05 -0.21,0.08 -0.32,0.12 -0.11,0.03 -0.2,0.04 -0.29,0.05 -0.09,0.01 -0.16,0 -0.23,-0.03 -0.06,-0.02 -0.12,-0.07 -0.17,-0.14 -0.05,-0.07 -0.1,-0.16 -0.13,-0.28l-1.03 -3.64c0.04,-0.12 0.12,-0.22 0.25,-0.31 0.12,-0.09 0.27,-0.16 0.43,-0.2 0.18,-0.05 0.36,-0.07 0.54,-0.07 0.17,0.01 0.34,0.11 0.49,0.28l1.15 1.26c0.12,0.13 0.22,0.26 0.32,0.37 0.09,0.12 0.2,0.26 0.32,0.41l0.03 -0.02c-0.09,-0.25 -0.18,-0.51 -0.26,-0.77 -0.08,-0.26 -0.15,-0.53 -0.23,-0.79l-0.33 -1.18c0.05,-0.03 0.12,-0.07 0.23,-0.11 0.1,-0.05 0.21,-0.08 0.32,-0.11 0.21,-0.07 0.38,-0.07 0.52,-0.03 0.13,0.04 0.23,0.18 0.3,0.42l1.06 3.75z"/>
   <path class="fil0" d="M27.31 7.13c-0.39,-0.06 -0.7,0.01 -0.94,0.21 -0.24,0.2 -0.39,0.52 -0.46,0.95 -0.07,0.43 -0.01,0.78 0.18,1.05 0.2,0.27 0.48,0.44 0.87,0.5 0.2,0.03 0.38,0.03 0.53,0 0.15,-0.04 0.3,-0.08 0.44,-0.13 0.07,0.08 0.12,0.18 0.16,0.28 0.03,0.11 0.03,0.22 0.02,0.35 -0.04,0.21 -0.18,0.37 -0.43,0.47 -0.24,0.11 -0.6,0.13 -1.07,0.06 -0.33,-0.06 -0.64,-0.15 -0.92,-0.29 -0.28,-0.14 -0.51,-0.33 -0.7,-0.56 -0.19,-0.23 -0.32,-0.51 -0.4,-0.83 -0.09,-0.32 -0.09,-0.69 -0.03,-1.11 0.06,-0.39 0.18,-0.72 0.34,-1 0.17,-0.28 0.38,-0.5 0.62,-0.67 0.25,-0.18 0.52,-0.29 0.82,-0.35 0.3,-0.06 0.61,-0.07 0.94,-0.02 0.45,0.07 0.8,0.2 1.03,0.39 0.23,0.19 0.32,0.4 0.29,0.63 -0.02,0.13 -0.07,0.24 -0.15,0.33 -0.08,0.08 -0.17,0.14 -0.26,0.19 -0.12,-0.11 -0.25,-0.2 -0.38,-0.29 -0.14,-0.08 -0.31,-0.13 -0.5,-0.16z"/>
   <path class="fil0" d="M8.44 4.49c-1.39,1.67 -1.69,3.52 -0.92,5.56 -0.95,0.5 -1.66,1.25 -2.05,2.27 -0.4,1.02 -0.39,2.04 -0.03,3.06 -1.67,-0.04 -3.96,-1.08 -4.99,-3.52 -0.97,-2.32 -0.35,-5.06 1.68,-6.72 1.98,-1.62 4.56,-1.6 6.31,-0.65z"/>
   <path class="fil1" d="M13.6 12.7c-0.08,-0.21 -0.15,-0.41 -0.24,-0.61 -0.34,-0.73 -0.84,-1.32 -1.51,-1.77 -0.06,-0.04 -0.06,-0.08 -0.06,-0.15 0.01,-0.3 0.02,-0.6 0.02,-0.89 -0.01,-0.2 -0.04,-0.4 -0.07,-0.6 -0.07,-0.52 -0.22,-1.01 -0.43,-1.49 -0.37,-0.82 -0.89,-1.53 -1.56,-2.12 -0.26,-0.22 -0.53,-0.43 -0.83,-0.6 -0.01,-0.01 -0.03,-0.03 -0.04,-0.04 1.32,-1.3 3.44,-1.78 5.33,-0.97 1.94,0.84 3.09,2.78 2.96,4.83 -0.15,2.28 -1.77,3.92 -3.57,4.41z"/>
   <path class="fil2" d="M5.85 15.66c0.11,-0.01 0.23,-0.01 0.35,-0.02 0.6,-0.03 1.18,-0.17 1.74,-0.38 0.9,-0.35 1.67,-0.88 2.32,-1.59 0.19,-0.22 0.36,-0.45 0.53,-0.68 0.03,-0.04 0.05,-0.05 0.1,-0.04 0.33,0.09 0.67,0.15 1.01,0.17 0.5,0.04 0.99,0 1.48,-0.1 0.01,0 0.01,0 0.03,0 0.23,1.21 0.03,2.33 -0.74,3.3 -1,1.29 -2.34,1.8 -3.95,1.53 -1.52,-0.26 -2.5,-1.35 -2.87,-2.19z"/>
   <path class="fil3" d="M11.54 10.12c-1.23,-0.64 -2.48,-0.7 -3.77,-0.19 -0.75,-1.65 -0.48,-3.86 0.92,-5.3 1.75,0.99 3.06,3.07 2.85,5.49z"/>
   <path class="fil4" d="M10.57 12.86c-0.27,0.4 -0.58,0.76 -0.94,1.08 -0.78,0.69 -1.68,1.14 -2.7,1.35 -0.38,0.08 -0.76,0.11 -1.15,0.11 -0.05,0 -0.07,-0.02 -0.09,-0.06 -0.22,-0.58 -0.31,-1.18 -0.25,-1.8 0.15,-1.45 0.87,-2.53 2.15,-3.24 0.01,-0.01 0.03,-0.01 0.05,-0.02 0.64,1.23 1.62,2.09 2.93,2.58z"/>
   <path class="fil5" d="M8.37 0c1.09,0 1.97,0.88 1.97,1.96 0,1.09 -0.88,1.97 -1.96,1.97 -1.09,0 -1.97,-0.88 -1.97,-1.97 0,-1.08 0.88,-1.96 1.96,-1.96z"/>
   <path class="fil6" d="M10.71 12.64c-1.27,-0.45 -2.21,-1.27 -2.84,-2.48 0.14,-0.04 0.26,-0.1 0.39,-0.13 1.1,-0.33 2.16,-0.22 3.18,0.33 0.06,0.03 0.07,0.07 0.06,0.13 -0.1,0.65 -0.3,1.27 -0.61,1.85 -0.05,0.09 -0.1,0.18 -0.15,0.26 -0.01,0.01 -0.02,0.02 -0.03,0.04z"/>
   <path class="fil7" d="M11.75 10.55c0.79,0.56 1.32,1.29 1.6,2.22 -0.8,0.17 -1.59,0.15 -2.38,-0.06 0.39,-0.67 0.65,-1.38 0.78,-2.16z"/>
  </g>
 </g>
</svg>
